<?xml version="1.0" encoding="UTF-8" standalone="no"?>
<!DOCTYPE svg PUBLIC "-//W3C//DTD SVG 1.1//EN" "http://www.w3.org/Graphics/SVG/1.1/DTD/svg11.dtd">
<svg width="100%" height="100%" viewBox="0 0 512 512" version="1.1" xmlns="http://www.w3.org/2000/svg" xmlns:xlink="http://www.w3.org/1999/xlink" xml:space="preserve" xmlns:serif="http://www.serif.com/" style="fill-rule:evenodd;clip-rule:evenodd;stroke-linejoin:round;stroke-miterlimit:2;">
    <g id="Page-1">
        <g id="J3">
            <path id="Combined-Shape" d="M256.001,0C257.672,0 259.339,0.016 261.003,0.048C262.099,0.069 263.194,0.097 264.288,0.132C264.419,0.136 264.55,0.14 264.68,0.144C267.363,0.234 270.035,0.364 272.697,0.536C272.776,0.541 272.855,0.546 272.934,0.551C274.246,0.637 275.556,0.732 276.863,0.838C276.96,0.846 277.057,0.854 277.154,0.861C278.452,0.968 279.747,1.083 281.039,1.209C281.13,1.218 281.22,1.227 281.31,1.235C283.955,1.495 286.589,1.795 289.21,2.134C289.306,2.147 289.401,2.159 289.497,2.172C290.789,2.34 292.077,2.519 293.363,2.707C293.432,2.717 293.502,2.727 293.571,2.737C294.867,2.928 296.16,3.128 297.45,3.338C297.515,3.349 297.58,3.36 297.645,3.37C298.93,3.581 300.213,3.8 301.491,4.03C301.531,4.037 301.57,4.044 301.609,4.051C302.89,4.281 304.169,4.521 305.444,4.771C305.538,4.789 305.633,4.808 305.727,4.826C306.962,5.069 308.193,5.321 309.422,5.582C309.544,5.608 309.667,5.634 309.79,5.661C311.037,5.927 312.281,6.203 313.522,6.488C313.563,6.498 313.605,6.507 313.646,6.517C316.197,7.104 318.733,7.729 321.254,8.391C321.375,8.423 321.496,8.455 321.617,8.487C321.753,8.523 321.89,8.559 322.026,8.595C431.411,37.713 512,137.445 512,256C512,397.385 397.385,512 256.001,512C114.615,512 0,397.385 0,256C0,114.615 114.615,0 256.001,0ZM256,46C140.02,46 46,140.02 46,256C46,371.98 140.02,466 256,466C371.98,466 466,371.98 466,256C466,163.086 405.658,84.265 322.024,56.589L322.024,64.003L261.009,64.003L261.008,46.059C259.343,46.02 257.674,46 256,46Z" style="fill:rgb(180,203,220);fill-rule:nonzero;"/>
            <path id="Path" d="M216.195,386.413C206.304,386.617 195.798,386.734 189.951,386.085L189.951,329.987C209.713,330.021 221.727,330.037 225.993,330.037C245.252,330.037 261.014,323.421 261.014,293.72L261.014,164.986L322,164.986L322,289.481C322,365.708 280.634,385.683 235.507,386.079L232.645,386.091C231.088,386.102 229.342,386.13 227.466,386.166L216.195,386.413Z" style="fill:rgb(180,203,220);fill-rule:nonzero;"/>
            <path id="Path1" serif:id="Path" d="M322,144.006L322,124.031L261.042,124.031L261.042,144.006L322,144.006Z" style="fill:rgb(180,203,220);fill-rule:nonzero;"/>
            <path id="Path2" serif:id="Path" d="M261.03,104.008L322,104.008L322,84.027L261.03,84.027L261.03,104.008Z" style="fill:rgb(180,203,220);fill-rule:nonzero;"/>
        </g>
    </g>
</svg>
